<?xml version="1.0" encoding="utf-8"?>
<!-- Generator: Adobe Illustrator 27.3.0, SVG Export Plug-In . SVG Version: 6.00 Build 0)  -->
<svg version="1.1" id="Layer_1" xmlns="http://www.w3.org/2000/svg" xmlns:xlink="http://www.w3.org/1999/xlink" x="0px" y="0px"
	 viewBox="0 0 50 50" style="enable-background:new 0 0 50 50;" xml:space="preserve">
<style type="text/css">
	.st0{fill:#D4AB5E;}
</style>
<g>
	<g>
		<path class="st0" d="M14.5,35.8c-0.8,0.1-1.5,0.4-2.1,0.9c-0.1,0.1-0.3,0.1-0.4,0.1c-0.2-0.1-0.3-0.2-0.3-0.4
			c-0.1-1.9,0.2-6,5-5.3c0.1,0,0.1,0.1,0.1,0.1c0,0,0,0.1,0,0.2c-0.6,1.2-0.5,2.6,0.1,3.8c0.1,0.1,0.3,0.2,0.4,0.1
			c1.2-0.6,2.1-1.7,2.4-3c0-0.1,0-0.1,0.1-0.1c0.1,0,0.1,0,0.2,0c0.8,0.3,3.1,1.5,2.5,4.1l0,0c-0.2,1.1-0.9,2.1-1.9,2.7
			c-1.3,0.9-3.7,2.7-4.2,4.5c0,0.1-0.1,0.3-0.3,0.3c-0.1,0-0.3,0-0.4-0.1C14.7,42.5,12.6,39.9,14.5,35.8L14.5,35.8z"/>
	</g>
	<g>
		<path class="st0" d="M12,26.4l3.4-0.3l0,0c0.1,1,0.3,1.9,0.5,2.9l0.1,0.5l6.1,2l0.4-0.4l0,0c0.7-0.6,1.4-1.3,2.1-2l2.6,2.2l0,0
			c0.1,0,0.1,0.1,0.2,0c0.1,0,0.1-0.1,0.1-0.1l0.9-2.7l0,0c0.3-0.9,0.2-1.8-0.3-2.6l-0.6-1.1c3.3-10.3-0.6-18.7-0.6-18.7
			S19,10.4,15.6,21l-1.2,0.5c-0.8,0.4-1.5,1.1-1.8,2l-0.9,2.7c0,0.1,0,0.1,0,0.2C11.8,26.4,11.9,26.4,12,26.4L12,26.4z M21.1,16.3
			c0.2-0.6,0.6-1.1,1.2-1.4c0.6-0.3,1.3-0.3,1.9-0.1s1.1,0.6,1.4,1.2c0.3,0.6,0.3,1.3,0.2,1.9c-0.2,0.6-0.6,1.1-1.2,1.4
			c-0.6,0.3-1.2,0.4-1.9,0.2c-0.6-0.2-1.1-0.6-1.4-1.2S20.9,16.9,21.1,16.3z"/>
	</g>
	<g>
		<polygon class="st0" points="38.3,46.2 14.7,46.2 14.7,45.4 37.5,45.4 37.5,4.6 27.8,4.6 27.8,3.8 38.3,3.8 		"/>
	</g>
</g>
</svg>
