<svg width="55" height="56" viewBox="0 0 55 56" fill="none" xmlns="http://www.w3.org/2000/svg">
<path fill-rule="evenodd" clip-rule="evenodd" d="M29.1051 0.87868L43.8943 15.6679C44.4569 16.2305 44.773 16.9935 44.773 17.7892V35H35.5C33.8431 35 32.5 36.3431 32.5 38V55.4795H3C1.34315 55.4795 0 54.1364 0 52.4795V3C0 1.34315 1.34314 0 3 0H26.9838C27.7794 0 28.5425 0.316071 29.1051 0.87868ZM39.9065 18.4932L25.3067 3.8933V18.4932H39.9065ZM51.3584 55.7076L53.7993 53.2667C54.1899 52.8762 54.1899 52.243 53.7993 51.8525L45.7465 43.7996H51.5598C52.1121 43.7996 52.5598 43.3519 52.5598 42.7996V39.933C52.5598 39.3807 52.1121 38.933 51.5598 38.933H37.9866C37.4343 38.933 36.9866 39.3807 36.9866 39.933V53.5062C36.9866 54.0585 37.4343 54.5062 37.9866 54.5062H40.8532C41.4055 54.5062 41.8532 54.0585 41.8532 53.5062V46.7196L49.908 55.6694C50.2913 56.0953 50.9533 56.1127 51.3584 55.7076Z" fill="#323F8B"/>
<path d="M15.095 27.47C15.355 27.47 15.5833 27.4367 15.78 27.37C15.98 27.3033 16.145 27.21 16.275 27.09C16.4083 26.9667 16.5083 26.8183 16.575 26.645C16.6417 26.4717 16.675 26.2783 16.675 26.065C16.675 25.855 16.6417 25.6667 16.575 25.5C16.5117 25.3333 16.415 25.1917 16.285 25.075C16.155 24.9583 15.99 24.87 15.79 24.81C15.5933 24.7467 15.3617 24.715 15.095 24.715H14.025V27.47H15.095ZM15.095 23.8C15.565 23.8 15.9717 23.855 16.315 23.965C16.6617 24.075 16.9467 24.23 17.17 24.43C17.3967 24.6267 17.565 24.865 17.675 25.145C17.785 25.4217 17.84 25.7283 17.84 26.065C17.84 26.4083 17.7817 26.7233 17.665 27.01C17.5483 27.2933 17.375 27.5383 17.145 27.745C16.915 27.9483 16.6283 28.1083 16.285 28.225C15.945 28.3383 15.5483 28.395 15.095 28.395H14.025V31H12.855V23.8H15.095ZM25.7235 27.4C25.7235 27.9333 25.6368 28.425 25.4635 28.875C25.2902 29.325 25.0452 29.7133 24.7285 30.04C24.4152 30.3633 24.0368 30.6167 23.5935 30.8C23.1535 30.9833 22.6635 31.075 22.1235 31.075C21.5868 31.075 21.0968 30.9833 20.6535 30.8C20.2135 30.6167 19.8352 30.3633 19.5185 30.04C19.2018 29.7133 18.9568 29.325 18.7835 28.875C18.6102 28.425 18.5235 27.9333 18.5235 27.4C18.5235 26.8667 18.6102 26.375 18.7835 25.925C18.9568 25.475 19.2018 25.0867 19.5185 24.76C19.8352 24.4333 20.2135 24.1783 20.6535 23.995C21.0968 23.8117 21.5868 23.72 22.1235 23.72C22.6635 23.72 23.1535 23.8117 23.5935 23.995C24.0368 24.1783 24.4152 24.4333 24.7285 24.76C25.0452 25.0867 25.2902 25.475 25.4635 25.925C25.6368 26.375 25.7235 26.8667 25.7235 27.4ZM24.5285 27.4C24.5285 26.9867 24.4718 26.615 24.3585 26.285C24.2485 25.955 24.0885 25.675 23.8785 25.445C23.6718 25.215 23.4202 25.0383 23.1235 24.915C22.8268 24.7917 22.4935 24.73 22.1235 24.73C21.7568 24.73 21.4252 24.7917 21.1285 24.915C20.8318 25.0383 20.5785 25.215 20.3685 25.445C20.1585 25.675 19.9968 25.955 19.8835 26.285C19.7702 26.615 19.7135 26.9867 19.7135 27.4C19.7135 27.8167 19.7702 28.19 19.8835 28.52C19.9968 28.85 20.1585 29.13 20.3685 29.36C20.5785 29.5867 20.8318 29.7617 21.1285 29.885C21.4252 30.005 21.7568 30.065 22.1235 30.065C22.4935 30.065 22.8268 30.005 23.1235 29.885C23.4202 29.7617 23.6718 29.5867 23.8785 29.36C24.0885 29.13 24.2485 28.85 24.3585 28.52C24.4718 28.19 24.5285 27.8167 24.5285 27.4ZM33.3254 27.4C33.3254 27.9333 33.2387 28.4217 33.0654 28.865C32.8921 29.305 32.6471 29.6833 32.3304 30C32.0171 30.3167 31.6387 30.5633 31.1954 30.74C30.7554 30.9133 30.2654 31 29.7254 31H27.0054V23.8H29.7254C30.2654 23.8 30.7554 23.8883 31.1954 24.065C31.6387 24.2383 32.0171 24.4833 32.3304 24.8C32.6471 25.1167 32.8921 25.4967 33.0654 25.94C33.2387 26.38 33.3254 26.8667 33.3254 27.4ZM32.1304 27.4C32.1304 26.9867 32.0737 26.615 31.9604 26.285C31.8504 25.955 31.6904 25.6767 31.4804 25.45C31.2737 25.2233 31.0221 25.05 30.7254 24.93C30.4287 24.8067 30.0954 24.745 29.7254 24.745H28.1804V30.055H29.7254C30.0954 30.055 30.4287 29.995 30.7254 29.875C31.0221 29.755 31.2737 29.5817 31.4804 29.355C31.6904 29.125 31.8504 28.8467 31.9604 28.52C32.0737 28.19 32.1304 27.8167 32.1304 27.4Z" fill="white"/>
</svg>
