<svg width="133" height="145" viewBox="0 0 133 145" fill="none" xmlns="http://www.w3.org/2000/svg">
<path fill-rule="evenodd" clip-rule="evenodd" d="M74.1418 0.878681L115.332 42.0687C115.894 42.6313 116.211 43.3944 116.211 44.19V90.8443H87.3554C85.6986 90.8443 84.3554 92.1875 84.3554 93.8443V144H3C1.34315 144 0 142.657 0 141V3C0 1.34315 1.34315 0 3 0H72.0205C72.8162 0 73.5792 0.316071 74.1418 0.878681ZM103.585 48L65.6898 10.1053V48H103.585ZM114.968 103.728H107.931C107.378 103.728 106.93 104.177 106.931 104.73L106.973 126.851L98.6723 118.582C98.281 118.192 97.6478 118.193 97.2581 118.584L92.2587 123.603C91.8689 123.994 91.8702 124.627 92.2614 125.017L111.438 144.12C111.829 144.51 112.462 144.509 112.852 144.117L131.955 124.941C132.345 124.55 132.344 123.917 131.952 123.527L126.889 118.483C126.516 118.111 125.918 118.093 125.522 118.441L115.968 126.851V104.728C115.968 104.176 115.52 103.728 114.968 103.728Z" fill="#301134" fill-opacity="0.9"/>
<path d="M40.9671 73.528C41.5911 73.528 42.1391 73.448 42.6111 73.288C43.0911 73.128 43.4871 72.904 43.7991 72.616C44.1191 72.32 44.3591 71.964 44.5191 71.548C44.6791 71.132 44.7591 70.668 44.7591 70.156C44.7591 69.652 44.6791 69.2 44.5191 68.8C44.3671 68.4 44.1351 68.06 43.8231 67.78C43.5111 67.5 43.1151 67.288 42.6351 67.144C42.1631 66.992 41.6071 66.916 40.9671 66.916H38.3991V73.528H40.9671ZM40.9671 64.72C42.0951 64.72 43.0711 64.852 43.8951 65.116C44.7271 65.38 45.4111 65.752 45.9471 66.232C46.4911 66.704 46.8951 67.276 47.1591 67.948C47.4231 68.612 47.5551 69.348 47.5551 70.156C47.5551 70.98 47.4151 71.736 47.1351 72.424C46.8551 73.104 46.4391 73.692 45.8871 74.188C45.3351 74.676 44.6471 75.06 43.8231 75.34C43.0071 75.612 42.0551 75.748 40.9671 75.748H38.3991V82H35.5911V64.72H40.9671ZM66.4755 73.36C66.4755 74.64 66.2675 75.82 65.8515 76.9C65.4355 77.98 64.8475 78.912 64.0875 79.696C63.3355 80.472 62.4275 81.08 61.3635 81.52C60.3075 81.96 59.1315 82.18 57.8355 82.18C56.5475 82.18 55.3715 81.96 54.3075 81.52C53.2515 81.08 52.3435 80.472 51.5835 79.696C50.8235 78.912 50.2355 77.98 49.8195 76.9C49.4035 75.82 49.1955 74.64 49.1955 73.36C49.1955 72.08 49.4035 70.9 49.8195 69.82C50.2355 68.74 50.8235 67.808 51.5835 67.024C52.3435 66.24 53.2515 65.628 54.3075 65.188C55.3715 64.748 56.5475 64.528 57.8355 64.528C59.1315 64.528 60.3075 64.748 61.3635 65.188C62.4275 65.628 63.3355 66.24 64.0875 67.024C64.8475 67.808 65.4355 68.74 65.8515 69.82C66.2675 70.9 66.4755 72.08 66.4755 73.36ZM63.6075 73.36C63.6075 72.368 63.4715 71.476 63.1995 70.684C62.9355 69.892 62.5515 69.22 62.0475 68.668C61.5515 68.116 60.9475 67.692 60.2355 67.396C59.5235 67.1 58.7235 66.952 57.8355 66.952C56.9555 66.952 56.1595 67.1 55.4475 67.396C54.7355 67.692 54.1275 68.116 53.6235 68.668C53.1195 69.22 52.7315 69.892 52.4595 70.684C52.1875 71.476 52.0515 72.368 52.0515 73.36C52.0515 74.36 52.1875 75.256 52.4595 76.048C52.7315 76.84 53.1195 77.512 53.6235 78.064C54.1275 78.608 54.7355 79.028 55.4475 79.324C56.1595 79.612 56.9555 79.756 57.8355 79.756C58.7235 79.756 59.5235 79.612 60.2355 79.324C60.9475 79.028 61.5515 78.608 62.0475 78.064C62.5515 77.512 62.9355 76.84 63.1995 76.048C63.4715 75.256 63.6075 74.36 63.6075 73.36ZM84.72 73.36C84.72 74.64 84.512 75.812 84.096 76.876C83.68 77.932 83.092 78.84 82.332 79.6C81.58 80.36 80.672 80.952 79.608 81.376C78.552 81.792 77.376 82 76.08 82H69.552V64.72H76.08C77.376 64.72 78.552 64.932 79.608 65.356C80.672 65.772 81.58 66.36 82.332 67.12C83.092 67.88 83.68 68.792 84.096 69.856C84.512 70.912 84.72 72.08 84.72 73.36ZM81.852 73.36C81.852 72.368 81.716 71.476 81.444 70.684C81.18 69.892 80.796 69.224 80.292 68.68C79.796 68.136 79.192 67.72 78.48 67.432C77.768 67.136 76.968 66.988 76.08 66.988H72.372V79.732H76.08C76.968 79.732 77.768 79.588 78.48 79.3C79.192 79.012 79.796 78.596 80.292 78.052C80.796 77.5 81.18 76.832 81.444 76.048C81.716 75.256 81.852 74.36 81.852 73.36Z" fill="white"/>
</svg>
