<?xml version="1.0" encoding="utf-8"?>
<!-- Generator: Adobe Illustrator 27.3.0, SVG Export Plug-In . SVG Version: 6.00 Build 0)  -->
<svg version="1.1" id="Layer_1" xmlns="http://www.w3.org/2000/svg" xmlns:xlink="http://www.w3.org/1999/xlink" x="0px" y="0px"
	 viewBox="0 0 50 50" style="enable-background:new 0 0 50 50;" xml:space="preserve">
<style type="text/css">
	.st0{fill:#D4AB5E;}
</style>
<g>
	<g>
		<path class="st0" d="M19.4,35.6c-0.6,0.3-1.1,0.8-1.5,1.3C17.8,37,17.7,37,17.6,37c-0.2,0-0.3-0.1-0.3-0.2
			c-0.6-1.6-1.4-5.1,2.8-5.8c0,0,0.1,0,0.1,0c0,0,0.1,0.1,0.1,0.1c-0.1,1.2,0.3,2.4,1.2,3.2c0.1,0.1,0.3,0.1,0.4,0
			c0.9-0.8,1.3-2,1.2-3.2c0-0.1,0-0.1,0-0.1c0,0,0.1-0.1,0.1,0c0.7,0.1,3,0.4,3.2,2.7l0,0c0.1,1-0.2,2-0.8,2.8
			c-0.9,1.1-2.4,3.3-2.3,4.9c0,0.1-0.1,0.3-0.2,0.3c-0.1,0.1-0.3,0.1-0.4,0C21.4,41.1,19,39.5,19.4,35.6L19.4,35.6z"/>
	</g>
	<g>
		<path class="st0" d="M14.6,27.9l2.8-1.2l0,0c0.3,0.8,0.7,1.5,1.2,2.3l0.3,0.4l5.7,0l0.3-0.4l0,0c0.5-0.7,0.9-1.5,1.2-2.3l2.8,1.1
			h0c0.1,0,0.1,0,0.2,0c0.1,0,0.1-0.1,0.1-0.2l0-2.5l0,0c0-0.8-0.3-1.6-1-2.1l-0.8-0.7c0-9.6-5.6-15.5-5.6-15.5s-5.5,5.7-5.5,15.5
			l-0.8,0.8c-0.6,0.5-1,1.3-1,2.1l0,2.5c0,0.1,0,0.1,0.1,0.2C14.5,27.9,14.6,27.9,14.6,27.9L14.6,27.9z M19.5,17
			c0-0.6,0.2-1.1,0.6-1.5c0.4-0.4,1-0.6,1.5-0.6c0.6,0,1.1,0.2,1.5,0.6s0.6,1,0.6,1.5c0,0.6-0.2,1.1-0.6,1.5c-0.4,0.4-1,0.6-1.5,0.6
			c-0.6,0-1.1-0.2-1.5-0.6C19.7,18.1,19.5,17.5,19.5,17z"/>
	</g>
	<g>
		<polygon class="st0" points="35.6,45.5 21.5,45.5 21.5,44.7 34.8,44.7 34.8,5.3 25.4,5.3 25.4,4.5 35.6,4.5 		"/>
	</g>
</g>
</svg>
