<svg width="82" height="36" viewBox="0 0 82 36" fill="none" xmlns="http://www.w3.org/2000/svg">
<path d="M24.162 9.61963H28.337V20.0896C28.337 22.2146 27.882 23.7946 26.977 24.8296C26.072 25.8646 24.542 26.3846 22.382 26.3846C21.492 26.3846 20.747 26.3396 20.137 26.2546C19.527 26.1696 18.882 26.0096 18.207 25.7846V22.2096L18.312 22.1596C18.852 22.3346 19.357 22.4646 19.827 22.5496C20.297 22.6346 20.882 22.6796 21.577 22.6796C22.307 22.6796 22.862 22.5996 23.237 22.4296C23.612 22.2646 23.862 21.9646 23.992 21.5296C24.122 21.0946 24.187 20.4696 24.187 19.6496L24.162 9.61963Z" fill="white"/>
<path d="M31.3438 26.1446V9.61963H43.6137V13.0146H35.5188V16.1496H42.5438V19.5446H35.5188V22.7546H43.6137V26.1496H31.3438V26.1446Z" fill="white"/>
<path d="M45.6953 26.1446V9.61963H57.9653V13.0146H49.8703V16.1496H56.8953V19.5446H49.8703V22.7546H57.9653V26.1496H45.6953V26.1446Z" fill="white"/>
<path d="M63.4461 26.1446V13.1446H58.7461V9.61963H72.3211V13.1446H67.6211V26.1446H63.4461Z" fill="white"/>
<path d="M81.4364 35.0948H0.566406V34.3898H80.7314V1.60979H9.53141V0.904785H81.4364V35.0948Z" fill="#D4AB5E"/>
<path d="M4.24482 26.7697C3.76482 26.9847 3.35482 27.3197 3.04482 27.7397C2.98982 27.8197 2.89982 27.8647 2.80482 27.8597C2.68982 27.8547 2.58482 27.7797 2.54482 27.6697C2.12982 26.4397 1.55482 23.7297 4.77482 23.3047C4.80982 23.3047 4.84982 23.3197 4.87482 23.3447C4.89982 23.3697 4.91482 23.4097 4.90982 23.4447C4.77982 24.3447 5.08482 25.2497 5.72982 25.8847C5.80982 25.9597 5.92982 25.9647 6.01482 25.8897C6.69482 25.2947 7.04982 24.4097 6.97482 23.5097C6.96982 23.4697 6.98482 23.4297 7.01482 23.4047C7.04482 23.3797 7.08482 23.3647 7.11982 23.3697C7.68482 23.4347 9.38482 23.7697 9.52482 25.5247C9.57482 26.2797 9.32482 27.0297 8.82982 27.5997C8.12982 28.4247 6.92482 30.0547 6.97482 31.2847C6.97982 31.3897 6.92982 31.4847 6.83982 31.5397C6.74982 31.5947 6.63982 31.5947 6.54982 31.5447C5.66982 31.0447 3.83982 29.7597 4.24482 26.7697Z" fill="#D4AB5E"/>
<path d="M0.759974 20.8499L2.90497 20.0249C3.14997 20.6299 3.43997 21.2099 3.77497 21.7699L3.96997 22.0899L8.27997 22.1999L8.48997 21.8899C8.85497 21.3499 9.17497 20.7849 9.44497 20.1899L11.55 21.1249C11.59 21.1449 11.64 21.1399 11.68 21.1149C11.72 21.0899 11.745 21.0449 11.745 20.9999L11.795 19.1149C11.81 18.4949 11.565 17.8949 11.115 17.4649L10.49 16.8799C10.675 9.60494 6.56997 4.93994 6.56997 4.93994C6.56997 4.93994 2.23497 9.17994 2.04497 16.6599L1.39497 17.2149C0.924973 17.6149 0.644974 18.1999 0.624974 18.8199L0.574974 20.7049C0.569974 20.7549 0.589974 20.7999 0.629974 20.8299C0.659974 20.8649 0.714974 20.8699 0.759974 20.8499ZM4.71497 12.6149C4.72497 12.1799 4.90997 11.7649 5.22997 11.4649C5.54497 11.1649 5.96997 10.9999 6.40497 11.0149C6.83997 11.0249 7.25497 11.2099 7.55497 11.5249C7.85497 11.8399 8.01997 12.2649 8.00997 12.6999C7.99997 13.1349 7.81497 13.5499 7.49997 13.8549C7.18497 14.1549 6.75997 14.3199 6.32497 14.3099C5.88497 14.2999 5.46997 14.1149 5.16997 13.7999C4.86497 13.4749 4.70497 13.0499 4.71497 12.6149Z" fill="#D4AB5E"/>
</svg>
