<svg width="80" height="37" viewBox="0 0 80 37" fill="none" xmlns="http://www.w3.org/2000/svg">
<path d="M25.4857 9.8125H29.9509V20.7892C29.9509 23.0218 29.3927 24.6962 28.4625 25.8125C27.5322 26.9288 25.8578 27.4869 23.6253 27.4869C22.695 27.4869 21.9509 27.4869 21.2067 27.3009C20.6485 27.3009 19.9043 27.1148 19.1602 26.7427V23.0218H19.3462C19.9043 23.2078 20.4625 23.3939 21.0206 23.3939C21.5788 23.3939 22.1369 23.5799 22.8811 23.5799C23.6253 23.5799 24.1834 23.5799 24.5555 23.3939C24.9276 23.2079 25.2997 22.8358 25.2997 22.4637C25.4857 22.0916 25.4857 21.3474 25.4857 20.4172V9.8125Z" fill="white"/>
<path d="M44.8348 26.7427C44.2766 26.9288 43.5324 27.1148 42.7882 27.3009C41.858 27.4869 40.7417 27.4869 39.6255 27.4869C38.1371 27.4869 36.6487 27.3009 35.5324 26.9288C34.4162 26.5567 33.672 25.8125 33.1138 24.8823C32.5557 23.952 32.1836 22.4637 32.1836 20.7892C32.1836 18.3706 32.7417 16.6962 33.858 15.5799C34.9743 14.4637 36.6487 13.9055 39.0673 13.9055C40.7417 13.9055 42.0441 14.0916 42.9743 14.6497C43.9045 15.2078 44.6487 15.766 45.0208 16.6962C45.3929 17.6264 45.5789 18.5567 45.5789 19.859C45.5789 20.2311 45.5789 20.6032 45.5789 20.9753C45.5789 21.3474 45.5789 21.7195 45.3929 22.0916L45.2068 22.2776H36.2766C36.4627 23.0218 36.8348 23.5799 37.3929 23.952C37.951 24.1381 39.0673 24.3241 40.5557 24.3241C41.4859 24.3241 42.2301 24.3241 42.9743 24.3241C43.5324 24.3241 44.2766 24.1381 44.8348 24.1381H45.0208V26.7427H44.8348ZM41.672 18.9288C41.672 18.5567 41.672 18.1846 41.4859 17.8125C41.2999 17.4404 41.1138 17.2544 40.7417 17.0683C40.3696 16.8823 39.8115 16.8823 38.8813 16.8823C37.765 16.8823 37.0208 17.0683 36.6487 17.4404C36.2766 17.8125 36.0906 18.3706 36.0906 18.9288H41.672Z" fill="white"/>
<path d="M59.5301 26.7427C58.9719 26.9288 58.2277 27.1148 57.4836 27.3009C56.5533 27.4869 55.437 27.4869 54.3208 27.4869C52.8324 27.4869 51.344 27.3009 50.2277 26.9288C49.1115 26.5567 48.3673 25.8125 47.8091 24.8823C47.251 23.952 46.8789 22.4637 46.8789 20.7892C46.8789 18.3706 47.437 16.6962 48.5533 15.5799C49.6696 14.4637 51.344 13.9055 53.7626 13.9055C55.437 13.9055 56.7394 14.0916 57.6696 14.6497C58.5998 15.2078 59.344 15.766 59.7161 16.6962C60.0882 17.6264 60.2743 18.5567 60.2743 19.859C60.2743 20.2311 60.2743 20.6032 60.2743 20.9753C60.2743 21.3474 60.2743 21.7195 60.0882 22.0916L59.9022 22.2776H50.9719C51.158 23.0218 51.5301 23.5799 52.0882 23.952C52.6463 24.1381 53.7626 24.3241 55.251 24.3241C56.1812 24.3241 56.9254 24.3241 57.6696 24.3241C58.2277 24.3241 58.9719 24.1381 59.5301 24.1381H59.7161V26.7427H59.5301ZM56.3673 18.9288C56.3673 18.5567 56.3673 18.1846 56.1812 17.8125C55.9952 17.4404 55.8091 17.2544 55.437 17.0683C55.0649 16.8823 54.5068 16.8823 53.5766 16.8823C52.4603 16.8823 51.7161 17.0683 51.344 17.4404C50.9719 17.8125 50.7859 18.3706 50.7859 18.9288H56.3673Z" fill="white"/>
<path d="M62.8814 23.0218V17.2543H61.207V13.7194H63.2535L63.9977 10.3706H67.1605V13.7194H70.1373V17.2543H67.1605V22.0915C67.1605 22.6497 67.1605 23.0218 67.3466 23.2078C67.5326 23.3939 67.7187 23.5799 68.2768 23.5799C68.6489 23.5799 68.8349 23.5799 69.207 23.5799C69.5791 23.5799 69.9512 23.5799 70.1373 23.3939V26.9287C69.207 27.1148 68.0907 27.3008 66.6024 27.3008C65.114 27.3008 64.1838 26.9287 63.6256 26.3706C63.0675 25.8125 62.8814 24.6962 62.8814 23.0218Z" fill="white"/>
<path d="M80.0008 36.417H2.60547V35.6728H79.2566V1.44023H11.9078V0.696045H80.0008V36.417Z" fill="#D4AB5E"/>
<path d="M1.86047 25.9984C1.30233 25.9984 0.744186 26.3705 0.372093 26.5565H0.186046C-1.802e-07 26.5565 0 26.3705 0 26.3705C0 25.0682 0.186047 22.2775 3.53488 22.6496C3.53488 22.6496 3.53488 22.6496 3.53488 22.8356C3.16279 23.7658 3.16279 24.6961 3.72093 25.4403C3.72093 25.6263 3.90698 25.6263 3.90698 25.4403C4.83721 25.0682 5.39535 24.324 5.5814 23.3938C5.5814 23.3938 5.58139 23.3938 5.76744 23.3938C6.32558 23.5798 7.81395 24.51 7.44186 26.1845C7.25581 26.9286 6.88372 27.6728 6.13954 28.0449C5.2093 28.6031 3.53488 29.9054 3.16279 31.2077C3.16279 31.3938 2.97674 31.3938 2.97674 31.3938C2.7907 31.3938 2.7907 31.3938 2.60465 31.3938C2.04651 30.6496 0.55814 28.7891 1.86047 25.9984Z" fill="#D4AB5E"/>
<path d="M0.186046 19.4867L2.60465 19.3006C2.60465 20.0448 2.7907 20.603 2.97674 21.3471L3.16279 21.7192L7.44186 23.0216L7.81395 22.8355C8.37209 22.4634 8.74419 21.9053 9.30233 21.5332L11.1628 23.0216C11.1628 23.0216 11.1628 23.0216 11.3488 23.0216C11.3488 23.0216 11.3488 23.0216 11.5349 22.8355L12.093 20.9751C12.2791 20.4169 12.2791 19.6727 11.907 19.1146L10.7907 18.5564C13.0233 11.4867 10.4186 5.71924 10.4186 5.71924C10.4186 5.71924 5.02326 8.69598 2.60465 15.9518L1.86047 16.3239C1.30233 16.5099 0.744186 17.0681 0.558139 17.6262L0 19.4867C0 19.4867 -1.802e-07 19.4867 0.186046 19.4867ZM6.51163 12.603C6.69767 12.2309 6.88372 11.8588 7.44186 11.6727C7.81395 11.4867 8.37209 11.4867 8.74419 11.4867C9.11628 11.6727 9.48837 11.8588 9.67442 12.2309C9.86047 12.603 9.86047 13.1611 9.86047 13.5332C9.67442 13.9053 9.48837 14.2774 9.11628 14.4634C8.37209 14.8355 8 14.8355 7.44186 14.8355C7.06977 14.6495 6.69767 14.4634 6.51163 13.9053C6.32558 13.5332 6.32558 12.9751 6.51163 12.603Z" fill="#D4AB5E"/>
</svg>
