<svg width="309" height="207" viewBox="0 0 309 207" fill="none" xmlns="http://www.w3.org/2000/svg">
<rect x="156.669" y="136.488" width="29.2126" height="40.4462" transform="rotate(14.5774 156.669 136.488)" fill="#FEFEFE" stroke="#F0F2F5" stroke-width="0.8"/>
<path d="M159.695 142.979L172.254 146.128" stroke="#F0F2F5" stroke-width="0.8" stroke-linecap="round"/>
<path d="M152.711 170.984L165.269 174.134" stroke="#F0F2F5" stroke-width="0.8" stroke-linecap="round"/>
<path d="M158.695 146.979L178.582 152.216" stroke="#F0F2F5" stroke-width="0.8" stroke-linecap="round"/>
<path d="M157.695 150.979L177.582 156.217" stroke="#F0F2F5" stroke-width="0.8" stroke-linecap="round"/>
<path d="M156.703 154.98L176.59 160.218" stroke="#F0F2F5" stroke-width="0.8" stroke-linecap="round"/>
<path d="M155.703 158.981L175.59 164.219" stroke="#F0F2F5" stroke-width="0.8" stroke-linecap="round"/>
<path d="M154.711 162.982L174.598 168.22" stroke="#F0F2F5" stroke-width="0.8" stroke-linecap="round"/>
<path d="M153.711 166.982L173.598 172.22" stroke="#F0F2F5" stroke-width="0.8" stroke-linecap="round"/>
<rect x="150.477" y="80.752" width="29.2126" height="40.4462" transform="rotate(-12.406 150.477 80.752)" fill="#FEFEFE" stroke="#F0F2F5" stroke-width="0.8"/>
<path d="M156.109 85.166L168.73 82.2747" stroke="#F0F2F5" stroke-width="0.8" stroke-linecap="round"/>
<path d="M162.602 113.289L175.222 110.398" stroke="#F0F2F5" stroke-width="0.8" stroke-linecap="round"/>
<path d="M157.039 89.1836L177.137 84.8278" stroke="#F0F2F5" stroke-width="0.8" stroke-linecap="round"/>
<path d="M157.969 93.2012L178.067 88.8453" stroke="#F0F2F5" stroke-width="0.8" stroke-linecap="round"/>
<path d="M158.891 97.2188L178.989 92.8629" stroke="#F0F2F5" stroke-width="0.8" stroke-linecap="round"/>
<path d="M159.82 101.236L179.919 96.8805" stroke="#F0F2F5" stroke-width="0.8" stroke-linecap="round"/>
<path d="M160.75 105.254L180.848 100.898" stroke="#F0F2F5" stroke-width="0.8" stroke-linecap="round"/>
<path d="M161.672 109.271L181.77 104.916" stroke="#F0F2F5" stroke-width="0.8" stroke-linecap="round"/>
<rect y="76" width="120" height="100" rx="4" fill="#F5F5F5"/>
<path d="M0 80C0 77.7909 1.79086 76 4 76H116.078C118.287 76 120.078 77.7909 120.078 80V86.7H0V80Z" fill="#ECECEC"/>
<path d="M11.8906 135.444H58.2573" stroke="white" stroke-width="1.2"/>
<path d="M11.8906 156.845H58.2573" stroke="white" stroke-width="1.2"/>
<path d="M11.8906 142.578H58.2573" stroke="white" stroke-width="1.2"/>
<path d="M11.8906 163.978H31.4677" stroke="white" stroke-width="1.2"/>
<path d="M11.8906 149.711H58.2573" stroke="white" stroke-width="1.2"/>
<path d="M58.2578 97.4004H104.624" stroke="white" stroke-width="1.2"/>
<path d="M58.2578 118.801H104.624" stroke="white" stroke-width="1.2"/>
<path d="M58.2578 104.534H104.624" stroke="white" stroke-width="1.2"/>
<path d="M58.2578 125.934H77.8348" stroke="white" stroke-width="1.2"/>
<path d="M58.2578 111.667H104.624" stroke="white" stroke-width="1.2"/>
<rect x="11.8906" y="96.2109" width="38.0444" height="32.1" fill="#F9F9F9"/>
<path d="M11.8906 119.394V128.311H49.9351V111.072L43.3962 106.911L30.9128 117.017L23.7795 111.072L11.8906 119.394Z" fill="#ECECEC"/>
<circle cx="30.9143" cy="105.722" r="3.56667" fill="#ECECEC"/>
<rect x="65.3906" y="135.444" width="38.0444" height="32.1" fill="#F9F9F9"/>
<path d="M65.3906 158.628V167.545H103.435V150.306L96.8962 146.145L84.4128 156.25L77.2795 150.306L65.3906 158.628Z" fill="#ECECEC"/>
<circle cx="84.4143" cy="144.955" r="3.56667" fill="#ECECEC"/>
<circle cx="6.54115" cy="81.3497" r="1.78333" fill="white"/>
<circle cx="11.2911" cy="81.3497" r="1.78333" fill="white"/>
<circle cx="16.049" cy="81.3497" r="1.78333" fill="white"/>
<rect x="138" y="136" width="120" height="71" rx="4" fill="#F5F5F5"/>
<path d="M138 140C138 137.791 139.791 136 142 136H254.078C256.287 136 258.078 137.791 258.078 140V146.7H138V140Z" fill="#ECECEC"/>
<path d="M149.891 160H196.257" stroke="white" stroke-width="1.2"/>
<path d="M149.891 181.4H196.257" stroke="white" stroke-width="1.2"/>
<path d="M149.891 167.134H196.257" stroke="white" stroke-width="1.2"/>
<path d="M149.891 188.533H169.468" stroke="white" stroke-width="1.2"/>
<path d="M149.891 174.267H196.257" stroke="white" stroke-width="1.2"/>
<rect x="203.391" y="160" width="38.0444" height="32.1" fill="#F9F9F9"/>
<path d="M203.391 183.184V192.1H241.435V174.861L234.896 170.7L222.413 180.806L215.28 174.861L203.391 183.184Z" fill="#ECECEC"/>
<circle cx="222.414" cy="169.511" r="3.56667" fill="#ECECEC"/>
<circle cx="144.541" cy="141.35" r="1.78333" fill="white"/>
<circle cx="149.291" cy="141.35" r="1.78333" fill="white"/>
<circle cx="154.049" cy="141.35" r="1.78333" fill="white"/>
<rect x="137" width="97" height="63" fill="#F5F5F5"/>
<circle cx="186" cy="30" r="14" fill="#E0E0E0"/>
<path d="M184 34V26L191 30L184 34Z" fill="#F6F6F6"/>
<rect x="137" y="51" width="97" height="12" fill="#E0E0E0"/>
<path d="M142 59V55L146 57L142 59Z" fill="#F6F6F6"/>
<circle cx="152" cy="57" r="1" fill="#F6F6F6"/>
<path d="M152 57H223" stroke="#F6F6F6"/>
<rect x="208" y="48" width="100.013" height="83.3441" rx="4" fill="#F5F5F5"/>
<path d="M208 52C208 49.7909 209.791 48 212 48H304.078C306.287 48 308.078 49.7909 308.078 52V56.9178H208V52Z" fill="#ECECEC"/>
<path d="M217.906 97.543H256.55" stroke="white" stroke-width="1.2"/>
<path d="M217.906 115.379H256.55" stroke="white" stroke-width="1.2"/>
<path d="M217.906 103.488H256.55" stroke="white" stroke-width="1.2"/>
<path d="M217.906 121.324H234.223" stroke="white" stroke-width="1.2"/>
<path d="M217.906 109.434H256.55" stroke="white" stroke-width="1.2"/>
<path d="M256.555 65.8359H295.199" stroke="white" stroke-width="1.2"/>
<path d="M256.555 83.6719H295.199" stroke="white" stroke-width="1.2"/>
<path d="M256.555 71.7812H295.199" stroke="white" stroke-width="1.2"/>
<path d="M256.555 89.6172H272.871" stroke="white" stroke-width="1.2"/>
<path d="M256.555 77.7266H295.199" stroke="white" stroke-width="1.2"/>
<rect x="217.906" y="64.8447" width="31.7078" height="26.7535" fill="#F9F9F9"/>
<path d="M217.906 84.1668V91.5983H249.614V77.2307L244.164 73.7627L233.76 82.1851L227.815 77.2307L217.906 84.1668Z" fill="#ECECEC"/>
<circle cx="233.762" cy="72.7714" r="2.97261" fill="#ECECEC"/>
<rect x="262.5" y="97.543" width="31.7078" height="26.7535" fill="#F9F9F9"/>
<path d="M262.5 116.865V124.297H294.208V109.929L288.758 106.461L278.354 114.883L272.409 109.929L262.5 116.865Z" fill="#ECECEC"/>
<circle cx="278.355" cy="105.47" r="2.97261" fill="#ECECEC"/>
<circle cx="213.447" cy="52.459" r="1.4863" fill="white"/>
<circle cx="217.416" cy="52.459" r="1.4863" fill="white"/>
<circle cx="221.377" cy="52.459" r="1.4863" fill="white"/>
<rect x="16.5417" y="120.946" width="23.8834" height="33.1223" transform="rotate(-16.0103 16.5417 120.946)" fill="#FEFEFE" stroke="#F0F2F5" stroke-width="0.8"/>
<path d="M21.3125 124.228L31.5218 121.202" stroke="#F0F2F5" stroke-width="0.8" stroke-linecap="round"/>
<path d="M28.0938 146.977L38.303 143.951" stroke="#F0F2F5" stroke-width="0.8" stroke-linecap="round"/>
<path d="M22.2812 127.478L38.5529 122.863" stroke="#F0F2F5" stroke-width="0.8" stroke-linecap="round"/>
<path d="M23.25 130.728L39.5217 126.113" stroke="#F0F2F5" stroke-width="0.8" stroke-linecap="round"/>
<path d="M24.2188 133.977L40.4904 129.362" stroke="#F0F2F5" stroke-width="0.8" stroke-linecap="round"/>
<path d="M25.1875 137.227L41.4592 132.612" stroke="#F0F2F5" stroke-width="0.8" stroke-linecap="round"/>
<path d="M26.1562 140.477L42.4279 135.862" stroke="#F0F2F5" stroke-width="0.8" stroke-linecap="round"/>
<path d="M27.125 143.727L43.3967 139.112" stroke="#F0F2F5" stroke-width="0.8" stroke-linecap="round"/>
<path d="M125.151 147.666L153.813 89.9146C154.915 87.6928 158.085 87.6928 159.187 89.9146L187.849 147.666C188.839 149.66 187.388 152 185.162 152H127.838C125.612 152 124.161 149.66 125.151 147.666Z" fill="#FFB702" stroke="#FFB702" stroke-linecap="round"/>
<path d="M159.18 112.864V122.016C159.18 122.987 159.132 123.941 159.036 124.88C158.94 125.808 158.812 126.795 158.652 127.84H155.98C155.82 126.795 155.692 125.808 155.596 124.88C155.5 123.941 155.452 122.987 155.452 122.016V112.864H159.18ZM154.844 133.824C154.844 133.493 154.903 133.179 155.02 132.88C155.148 132.581 155.319 132.325 155.532 132.112C155.756 131.899 156.017 131.728 156.316 131.6C156.615 131.472 156.935 131.408 157.276 131.408C157.607 131.408 157.921 131.472 158.22 131.6C158.519 131.728 158.775 131.899 158.988 132.112C159.201 132.325 159.372 132.581 159.5 132.88C159.628 133.179 159.692 133.493 159.692 133.824C159.692 134.165 159.628 134.485 159.5 134.784C159.372 135.072 159.201 135.323 158.988 135.536C158.775 135.749 158.519 135.915 158.22 136.032C157.921 136.16 157.607 136.224 157.276 136.224C156.935 136.224 156.615 136.16 156.316 136.032C156.017 135.915 155.756 135.749 155.532 135.536C155.319 135.323 155.148 135.072 155.02 134.784C154.903 134.485 154.844 134.165 154.844 133.824Z" fill="white"/>
</svg>
